# xmcd
#
# Track frame offsets: 
#        150
#        16015
#        32674
#        50285
#        62324
#        78452
#        93687
#        111214
#        125387
#        145647
#        161598
#
# Disc length: 2348 seconds
#
# Revision: 0
# Processed by: cddbd v1.5.2PL0 Copyright (c) Steve Scherf et al.
# Submitted via: ExactAudioCopyFreeDBPlugin 1.0
#
DISCID=80092a0b
DTITLE=The Lucky Strikes - The Exile and The Sea
DYEAR=2013
DGENRE=Alt. Country
TTITLE0=To Be King
TTITLE1=The Beast Burnt Down
TTITLE2=The Exile and The Sea
TTITLE3=New Avalon
TTITLE4=The Butcher and Mrs. Shaw
TTITLE5=Ballet Shoes
TTITLE6=Goldspring
TTITLE7=The Devil Knows Yourself
TTITLE8=Vincent
TTITLE9=Ghost and the Actress
TTITLE10=The Writer
EXTD=
EXTT0=
EXTT1=
EXTT2=
EXTT3=
EXTT4=
EXTT5=
EXTT6=
EXTT7=
EXTT8=
EXTT9=
EXTT10=
PLAYORDER=
